HIERARCHY
ROOT hip
{
	OFFSET 0.000000 0.000000 0.000000 
	CHANNELS 6 Xposition Yposition Zposition Xrotation Zrotation Yrotation
	JOINT abdomen
	{
		OFFSET 0.000000 3.402643 0.000000 
		CHANNELS 3 Xrotation Zrotation Yrotation
		JOINT chest
		{
			OFFSET 0.000000 8.438565 -0.680529 
			CHANNELS 3 Xrotation Zrotation Yrotation
			JOINT neck
			{
				OFFSET 0.000000 10.207942 -0.272212 
				CHANNELS 3 Xrotation Zrotation Yrotation
				JOINT head
				{
					OFFSET 0.000000 3.130431 0.000000 
					CHANNELS 3 Xrotation Zrotation Yrotation
					End Site
					{
						OFFSET 0.000000 3.130435 0.000000 
					}
				}
			}
			JOINT lCollar
			{
				OFFSET 3.470700 6.669187 -0.816635 
				CHANNELS 3 Yrotation Zrotation Xrotation
				JOINT lShldr
				{
					OFFSET 3.198488 0.000000 0.000000 
					CHANNELS 3 Zrotation Yrotation Xrotation
					JOINT lForeArm
					{
						OFFSET 10.139888 0.000000 0.000000 
						CHANNELS 3 Yrotation Zrotation Xrotation
						JOINT lHand
						{
							OFFSET 8.370511 0.000000 0.000000 
							CHANNELS 3 Zrotation Yrotation Xrotation
							End Site
							{
								OFFSET 4.083176 0.000000 0.000000 
							}
						}
					}
				}
			}
			JOINT rCollar
			{
				OFFSET -3.470700 6.669187 -0.816635 
				CHANNELS 3 Yrotation Zrotation Xrotation
				JOINT rShldr
				{
					OFFSET -3.198488 0.000000 0.000000 
					CHANNELS 3 Zrotation Yrotation Xrotation
					JOINT rForeArm
					{
						OFFSET -10.139888 0.000000 0.000000 
						CHANNELS 3 Yrotation Zrotation Xrotation
						JOINT rHand
						{
							OFFSET -8.370511 0.000000 0.000000 
							CHANNELS 3 Zrotation Yrotation Xrotation
							End Site
							{
								OFFSET -4.083176 0.000000 0.000000 
							}
						}
					}
				}
			}
		}
	}
	JOINT lThigh
	{
		OFFSET 5.308129 -1.633274 1.361059 
		CHANNELS 3 Xrotation Zrotation Yrotation
		JOINT lShin
		{
			OFFSET -2.041588 -20.007561 0.000000 
			CHANNELS 3 Xrotation Zrotation Yrotation
			JOINT lFoot
			{
				OFFSET 0.000000 -19.190928 -1.224953 
				CHANNELS 3 Xrotation Yrotation Zrotation
				End Site
				{
					OFFSET 0.000000 -2.449906 4.627600 
				}
			}
		}
	}
	JOINT rThigh
	{
		OFFSET -5.308129 -1.633274 1.361059 
		CHANNELS 3 Xrotation Zrotation Yrotation
		JOINT rShin
		{
			OFFSET 2.041588 -20.007561 0.000000 
			CHANNELS 3 Xrotation Zrotation Yrotation
			JOINT rFoot
			{
				OFFSET 0.000000 -19.190928 -1.224953 
				CHANNELS 3 Xrotation Yrotation Zrotation
				End Site
				{
					OFFSET 0.000000 -2.449906 4.627600 
				}
			}
		}
	}
}
MOTION
Frames: 8
Frame Time: 0.011111
43.580517 51.769951 -29.392120 3.117516 4.222380 -14.391297 20.856947 -3.510961 -7.516800 -20.759550 -0.590647 -1.715087 -13.260701 -3.704430 -3.666949 53.977776 3.350071 -8.436045 -13.725516 -13.189672 -3.762996 -52.140518 -11.963779 48.460773 -85.636269 2.094499 27.560555 8.524705 12.647240 -27.083385 8.354301 9.292459 -1.514610 -9.988070 18.947536 -22.575449 85.465363 -2.337938 27.246365 -8.534408 -12.637552 46.771339 -4.505456 4.104937 3.547863 29.503668 -5.361794 -4.788518 -34.545300 6.488577 3.020497 -44.543579 -9.520077 0.009380 66.263748 1.973801 8.616452 -13.543593 -11.644089 0.584991 
43.543812 51.688881 -29.305624 3.063732 4.353337 -14.876891 20.836523 -3.533816 -8.282313 -20.886610 -0.341837 -1.920416 -13.497981 -4.073744 -3.205092 53.712860 2.754860 -7.923987 -13.725516 -13.189672 -3.762996 -52.434803 -12.371996 48.673996 -85.668465 2.047484 27.632874 8.524705 12.647240 -26.751352 8.354301 9.292459 -1.514610 -10.462241 19.591059 -22.859922 85.895935 -1.699968 28.228630 -8.534408 -12.637552 50.365093 -4.438370 4.008563 3.827598 29.743902 -5.347789 -4.815787 -34.682056 6.608738 3.138086 -45.094505 -9.608940 -0.953170 68.028915 1.777952 8.740493 -13.045323 -12.002971 0.636784 
43.487316 51.640041 -29.191353 2.839507 4.537286 -15.429363 21.023975 -3.806057 -8.672910 -21.208563 -0.500036 -1.994856 -13.647783 -4.127982 -3.053175 53.588882 2.584163 -7.735358 -13.725516 -13.189672 -3.762996 -52.129173 -12.649437 49.414654 -85.729988 1.951604 27.767832 8.524705 12.647240 -25.393930 8.354301 9.292459 -1.514610 -10.603491 20.104811 -23.241484 86.131065 -1.325136 29.196411 -8.534408 -12.637552 54.154160 -3.915598 3.778801 4.047946 29.522732 -5.366694 -4.791460 -34.758160 6.803826 3.262766 -45.248058 -9.901364 -1.867056 69.725014 1.572220 8.847090 -12.741663 -12.681528 0.613005 
43.422840 51.610680 -29.062401 2.833847 4.804755 -15.895184 20.882166 -4.108217 -8.961646 -21.452450 -0.636256 -2.039492 -13.680038 -4.302653 -3.019169 53.322937 2.690125 -7.684613 -13.725516 -13.189672 -3.762996 -51.885502 -13.128928 50.245136 -85.758026 1.913146 27.839548 8.524705 12.647240 -24.124403 8.354301 9.292459 -1.514610 -11.035982 20.982218 -23.653368 86.260826 -1.280396 30.081594 -8.534408 -12.637552 57.874855 -3.553002 3.406355 3.855170 29.204216 -5.376621 -4.735966 -34.867393 7.025240 3.423116 -45.524246 -10.478227 -2.850899 71.420090 1.376894 8.963639 -12.739868 -13.549981 0.457353 
43.336021 51.594723 -28.905680 2.948627 4.994899 -16.435490 20.487961 -4.239468 -9.101563 -21.540211 -0.727952 -2.076024 -13.625669 -4.576770 -3.005976 52.713020 2.742516 -7.714946 -13.725516 -13.189672 -3.762996 -51.819080 -13.753776 51.111195 -85.761452 1.903972 27.840130 8.524705 12.647240 -23.616590 8.354301 9.292459 -1.514610 -11.850238 22.482651 -24.002430 86.390900 -1.509216 30.870447 -8.534408 -12.637552 61.117046 -3.248860 3.121650 3.400923 28.762388 -5.405686 -4.693873 -35.011372 7.478901 3.736051 -45.660023 -10.995070 -3.942108 72.996872 1.142609 9.057609 -12.666864 -14.643751 0.334588 
43.236752 51.594723 -28.726942 3.013370 5.031863 -17.083862 20.132515 -4.194250 -9.026227 -21.598642 -0.973989 -2.060970 -13.556767 -4.655251 -3.102055 51.964516 2.618721 -7.998395 -13.725516 -13.189672 -3.762996 -51.627903 -14.383552 52.082848 -85.762085 1.904774 27.850176 8.524705 12.647240 -23.391981 8.354301 9.292459 -1.514610 -12.822033 24.520706 -24.209122 86.573074 -1.898616 31.523249 -8.534408 -12.637552 63.646347 -2.718482 2.961473 2.959464 28.122168 -5.430579 -4.622619 -35.031811 8.134296 4.126156 -45.318485 -11.453900 -5.184456 74.281288 0.977126 9.144411 -12.537086 -15.670727 0.225443 
43.113865 51.610996 -28.564154 3.192549 5.165124 -17.553102 19.685543 -4.202617 -9.040920 -21.783941 -1.352090 -2.069222 -13.513545 -4.667527 -3.333443 51.437931 2.706800 -8.431335 -13.725516 -13.189672 -3.762996 -51.233810 -14.902937 53.235226 -85.772247 1.888562 27.871037 8.524705 12.647240 -23.235729 8.354301 9.292459 -1.514610 -13.821422 26.964674 -24.258421 86.805153 -2.331126 32.077160 -8.534408 -12.637552 65.745956 -2.361300 2.809866 2.426927 27.469101 -5.474304 -4.515717 -34.922905 8.663302 4.378954 -44.907879 -12.186068 -6.597731 75.400139 0.820233 9.203267 -12.396863 -16.332468 0.196824 
42.962894 51.646111 -28.364346 3.385311 5.329289 -18.223995 19.102444 -4.321976 -8.711802 -21.959665 -1.746976 -1.977230 -13.499681 -4.836603 -3.665126 51.173618 3.126554 -9.012750 -13.725516 -13.189672 -3.762996 -50.760281 -15.356927 54.697372 -85.794060 1.857741 27.932182 8.524705 12.647240 -23.108778 8.354301 9.292459 -1.514610 -14.953313 29.537153 -24.134846 87.066780 -2.760229 32.526230 -8.534408 -12.637552 67.767433 -1.865131 2.704729 2.183228 26.665672 -5.512689 -4.413516 -34.785786 9.079404 4.526007 -44.252514 -12.878652 -7.966567 76.237251 0.713060 9.237933 -12.167781 -16.710453 0.179691 
